<?xml version="1.0" encoding="UTF-8" standalone="no"?>
<svg
   xmlns:dc="http://purl.org/dc/elements/1.1/"
   xmlns:cc="http://creativecommons.org/ns#"
   xmlns:rdf="http://www.w3.org/1999/02/22-rdf-syntax-ns#"
   xmlns:svg="http://www.w3.org/2000/svg"
   xmlns="http://www.w3.org/2000/svg"
   xmlns:xlink="http://www.w3.org/1999/xlink"
   xmlns:sodipodi="http://sodipodi.sourceforge.net/DTD/sodipodi-0.dtd"
   xmlns:inkscape="http://www.inkscape.org/namespaces/inkscape"
   width="50"
   height="67"
   viewBox="0 0 13.229167 17.727084"
   version="1.1"
   id="svg1402"
   sodipodi:docname="favicon.svg"
   inkscape:version="1.0 (4035a4f, 2020-05-01)">
  <defs
     id="defs1396">
    <linearGradient
       inkscape:collect="always"
       id="linearGradient2808">
      <stop
         style="stop-color:#0000d4;stop-opacity:1;"
         offset="0"
         id="stop2804" />
      <stop
         style="stop-color:#00004d;stop-opacity:1"
         offset="1"
         id="stop2806" />
    </linearGradient>
    <linearGradient
       inkscape:collect="always"
       id="linearGradient2800">
      <stop
         style="stop-color:#660080;stop-opacity:1;"
         offset="0"
         id="stop2796" />
      <stop
         style="stop-color:#3c004d;stop-opacity:1"
         offset="1"
         id="stop2798" />
    </linearGradient>
    <linearGradient
       inkscape:collect="always"
       id="linearGradient2792">
      <stop
         style="stop-color:#00d400;stop-opacity:1;"
         offset="0"
         id="stop2788" />
      <stop
         style="stop-color:#008a00;stop-opacity:1"
         offset="1"
         id="stop2790" />
    </linearGradient>
    <linearGradient
       inkscape:collect="always"
       id="linearGradient2784">
      <stop
         style="stop-color:#e4007c;stop-opacity:1;"
         offset="0"
         id="stop2780" />
      <stop
         style="stop-color:#8a004b;stop-opacity:1"
         offset="1"
         id="stop2782" />
    </linearGradient>
    <linearGradient
       inkscape:collect="always"
       id="linearGradient2776">
      <stop
         style="stop-color:#ffff00;stop-opacity:1;"
         offset="0"
         id="stop2772" />
      <stop
         style="stop-color:#8a8a00;stop-opacity:1"
         offset="1"
         id="stop2774" />
    </linearGradient>
    <linearGradient
       inkscape:collect="always"
       id="linearGradient2768">
      <stop
         style="stop-color:#0000d4;stop-opacity:1;"
         offset="0"
         id="stop2764" />
      <stop
         style="stop-color:#9e9eff;stop-opacity:1"
         offset="1"
         id="stop2766" />
    </linearGradient>
    <linearGradient
       inkscape:collect="always"
       id="linearGradient2760">
      <stop
         style="stop-color:#660080;stop-opacity:1;"
         offset="0"
         id="stop2756" />
      <stop
         style="stop-color:#eb9eff;stop-opacity:0"
         offset="1"
         id="stop2758" />
    </linearGradient>
    <linearGradient
       inkscape:collect="always"
       id="linearGradient2752">
      <stop
         style="stop-color:#00d400;stop-opacity:1;"
         offset="0"
         id="stop2748" />
      <stop
         style="stop-color:#9eff9e;stop-opacity:1"
         offset="1"
         id="stop2750" />
    </linearGradient>
    <linearGradient
       inkscape:collect="always"
       id="linearGradient2744">
      <stop
         style="stop-color:#e4007c;stop-opacity:1;"
         offset="0"
         id="stop2740" />
      <stop
         style="stop-color:#ff9ed3;stop-opacity:1"
         offset="1"
         id="stop2742" />
    </linearGradient>
    <linearGradient
       inkscape:collect="always"
       id="linearGradient2736">
      <stop
         style="stop-color:#ffff00;stop-opacity:1;"
         offset="0"
         id="stop2732" />
      <stop
         style="stop-color:#ffff9e;stop-opacity:1"
         offset="1"
         id="stop2734" />
    </linearGradient>
    <linearGradient
       inkscape:collect="always"
       id="linearGradient2240">
      <stop
         style="stop-color:#005200;stop-opacity:1"
         offset="0"
         id="stop2236" />
      <stop
         style="stop-color:#00d400;stop-opacity:1"
         offset="1"
         id="stop2238" />
    </linearGradient>
    <linearGradient
       inkscape:collect="always"
       id="linearGradient2258">
      <stop
         style="stop-color:#690038;stop-opacity:1"
         offset="0"
         id="stop2254" />
      <stop
         style="stop-color:#e4007c;stop-opacity:1"
         offset="1"
         id="stop2256" />
    </linearGradient>
    <linearGradient
       inkscape:collect="always"
       id="linearGradient2246">
      <stop
         style="stop-color:#c7c700;stop-opacity:1"
         offset="0"
         id="stop2242" />
      <stop
         style="stop-color:#ffff00;stop-opacity:1"
         offset="1"
         id="stop2244" />
    </linearGradient>
    <linearGradient
       inkscape:collect="always"
       id="linearGradient2111">
      <stop
         style="stop-color:#002500;stop-opacity:1"
         offset="0"
         id="stop2107" />
      <stop
         style="stop-color:#00d400;stop-opacity:1"
         offset="1"
         id="stop2109" />
    </linearGradient>
    <linearGradient
       inkscape:collect="always"
       id="linearGradient2117">
      <stop
         style="stop-color:#38001e;stop-opacity:1"
         offset="0"
         id="stop2113" />
      <stop
         style="stop-color:#e4007c;stop-opacity:1"
         offset="1"
         id="stop2115" />
    </linearGradient>
    <linearGradient
       inkscape:collect="always"
       id="linearGradient2105">
      <stop
         style="stop-color:#340042;stop-opacity:1"
         offset="0"
         id="stop2101" />
      <stop
         style="stop-color:#660080;stop-opacity:1"
         offset="1"
         id="stop2103" />
    </linearGradient>
    <linearGradient
       inkscape:collect="always"
       id="linearGradient2099">
      <stop
         style="stop-color:#868600;stop-opacity:1"
         offset="0"
         id="stop2095" />
      <stop
         style="stop-color:#ffff00;stop-opacity:1"
         offset="1"
         id="stop2097" />
    </linearGradient>
    <linearGradient
       id="linearGradient2905"
       inkscape:collect="always">
      <stop
         id="stop2901"
         offset="0"
         style="stop-color:#005600;stop-opacity:1" />
      <stop
         id="stop2903"
         offset="1"
         style="stop-color:#00d400;stop-opacity:1" />
    </linearGradient>
    <linearGradient
       inkscape:collect="always"
       id="linearGradient2252">
      <stop
         style="stop-color:#3f004f;stop-opacity:1"
         offset="0"
         id="stop2248" />
      <stop
         style="stop-color:#660080;stop-opacity:1"
         offset="1"
         id="stop2250" />
    </linearGradient>
    <linearGradient
       id="linearGradient2899"
       inkscape:collect="always">
      <stop
         id="stop2895"
         offset="0"
         style="stop-color:#006700;stop-opacity:1" />
      <stop
         id="stop2897"
         offset="1"
         style="stop-color:#00d400;stop-opacity:1" />
    </linearGradient>
    <linearGradient
       id="linearGradient3300"
       inkscape:collect="always">
      <stop
         id="stop3296"
         offset="0"
         style="stop-color:#beffbe;stop-opacity:1" />
      <stop
         id="stop3298"
         offset="1"
         style="stop-color:#00d400;stop-opacity:1" />
    </linearGradient>
    <linearGradient
       id="linearGradient2504"
       inkscape:collect="always">
      <stop
         id="stop2500"
         offset="0"
         style="stop-color:#df56ff;stop-opacity:1" />
      <stop
         id="stop2502"
         offset="1"
         style="stop-color:#660080;stop-opacity:1" />
    </linearGradient>
    <linearGradient
       inkscape:collect="always"
       id="linearGradient2159">
      <stop
         style="stop-color:#ffff00;stop-opacity:1;"
         offset="0"
         id="stop2155" />
      <stop
         style="stop-color:#7d7d00;stop-opacity:1"
         offset="1"
         id="stop2157" />
    </linearGradient>
    <linearGradient
       inkscape:collect="always"
       id="linearGradient2153">
      <stop
         style="stop-color:#e4007c;stop-opacity:1"
         offset="0"
         id="stop2149" />
      <stop
         style="stop-color:#88004b;stop-opacity:1"
         offset="1"
         id="stop2151" />
    </linearGradient>
    <linearGradient
       inkscape:collect="always"
       xlink:href="#linearGradient2258"
       id="linearGradient2886-5"
       gradientUnits="userSpaceOnUse"
       gradientTransform="matrix(0.02424053,1.4575525e-4,-1.4340719e-4,0.02463743,87.425561,-1.7965942)"
       x1="1367.8186"
       y1="7970.79"
       x2="1371.0911"
       y2="8087.0923" />
    <linearGradient
       inkscape:collect="always"
       xlink:href="#linearGradient2736"
       id="linearGradient2738"
       x1="154.37314"
       y1="96.49839"
       x2="161.91228"
       y2="91.948097"
       gradientUnits="userSpaceOnUse" />
    <linearGradient
       inkscape:collect="always"
       xlink:href="#linearGradient2744"
       id="linearGradient2746"
       x1="154.42453"
       y1="111.02402"
       x2="173.4745"
       y2="99.337807"
       gradientUnits="userSpaceOnUse" />
    <linearGradient
       inkscape:collect="always"
       xlink:href="#linearGradient2752"
       id="linearGradient2754"
       x1="154.56691"
       y1="125.29717"
       x2="171.21194"
       y2="115.47034"
       gradientUnits="userSpaceOnUse" />
    <linearGradient
       inkscape:collect="always"
       xlink:href="#linearGradient2760"
       id="linearGradient2762"
       x1="158.20222"
       y1="135.82431"
       x2="200.13654"
       y2="111.01402"
       gradientUnits="userSpaceOnUse" />
    <linearGradient
       inkscape:collect="always"
       xlink:href="#linearGradient2768"
       id="linearGradient2770"
       x1="154.4615"
       y1="145.9045"
       x2="165.17619"
       y2="130.92101"
       gradientUnits="userSpaceOnUse" />
    <linearGradient
       inkscape:collect="always"
       xlink:href="#linearGradient2776"
       id="linearGradient2778"
       x1="154.08569"
       y1="96.699989"
       x2="146.68535"
       y2="92.029808"
       gradientUnits="userSpaceOnUse" />
    <linearGradient
       inkscape:collect="always"
       xlink:href="#linearGradient2784"
       id="linearGradient2786"
       x1="154.1273"
       y1="110.64674"
       x2="140.26385"
       y2="102.47393"
       gradientUnits="userSpaceOnUse" />
    <linearGradient
       inkscape:collect="always"
       xlink:href="#linearGradient2792"
       id="linearGradient2794"
       x1="154.26683"
       y1="125.49115"
       x2="137.0531"
       y2="115.27514"
       gradientUnits="userSpaceOnUse" />
    <linearGradient
       inkscape:collect="always"
       xlink:href="#linearGradient2800"
       id="linearGradient2802"
       x1="154.16229"
       y1="138.06499"
       x2="145.21844"
       y2="132.71375"
       gradientUnits="userSpaceOnUse" />
    <linearGradient
       inkscape:collect="always"
       xlink:href="#linearGradient2808"
       id="linearGradient2810"
       x1="154.15741"
       y1="146.19638"
       x2="149.79132"
       y2="139.6776"
       gradientUnits="userSpaceOnUse" />
    <linearGradient
       inkscape:collect="always"
       xlink:href="#linearGradient2504"
       id="linearGradient1992-6"
       gradientUnits="userSpaceOnUse"
       x1="2089.1345"
       y1="6833.1133"
       x2="2194.5134"
       y2="7014.9507"
       gradientTransform="matrix(0.02484019,0,0,0.02484019,39.054092,11.448037)" />
    <linearGradient
       gradientTransform="matrix(0.09388421,0,0,0.09388421,301.014,-168.66519)"
       inkscape:collect="always"
       xlink:href="#linearGradient2159"
       id="linearGradient2161-7"
       x1="-2303.6714"
       y1="3831.6851"
       x2="-2286.9651"
       y2="3757.2725"
       gradientUnits="userSpaceOnUse" />
    <linearGradient
       inkscape:collect="always"
       xlink:href="#linearGradient2153"
       id="linearGradient2018-4"
       gradientUnits="userSpaceOnUse"
       gradientTransform="matrix(0.09388421,0,0,0.09388421,39.054092,11.448037)"
       x1="493.46844"
       y1="1900.4822"
       x2="533.84521"
       y2="1810.9497" />
    <linearGradient
       inkscape:collect="always"
       xlink:href="#linearGradient3300"
       id="linearGradient2020-3"
       gradientUnits="userSpaceOnUse"
       gradientTransform="matrix(0.09388421,0,0,0.09388421,39.054092,11.448037)"
       x1="545.91583"
       y1="1805.8438"
       x2="570.27863"
       y2="1872.7678" />
    <linearGradient
       inkscape:collect="always"
       xlink:href="#linearGradient2111"
       id="linearGradient1982-0"
       gradientUnits="userSpaceOnUse"
       x1="370.81812"
       y1="2122.863"
       x2="360.89047"
       y2="2226.7952"
       gradientTransform="matrix(0.09388421,0,0,0.09388421,40.721187,33.370326)" />
    <linearGradient
       inkscape:collect="always"
       xlink:href="#linearGradient2117"
       id="linearGradient1984-5"
       gradientUnits="userSpaceOnUse"
       gradientTransform="matrix(0.02416824,0.00573861,-0.00573861,0.02416824,87.269787,30.495616)"
       x1="1369.5162"
       y1="8182.2217"
       x2="1378.4769"
       y2="8387.9014" />
    <linearGradient
       inkscape:collect="always"
       xlink:href="#linearGradient2105"
       id="linearGradient2010-0"
       gradientUnits="userSpaceOnUse"
       gradientTransform="matrix(0.09134454,0.0216892,-0.0216892,0.09134454,87.269747,30.495586)"
       x1="363.42062"
       y1="2142.4907"
       x2="371.50272"
       y2="2177.7202" />
    <linearGradient
       inkscape:collect="always"
       xlink:href="#linearGradient2099"
       id="linearGradient2012-7"
       gradientUnits="userSpaceOnUse"
       gradientTransform="matrix(0.02416824,0.00573861,-0.00573861,0.02416824,87.848317,30.359466)"
       x1="1442.1904"
       y1="7807.418"
       x2="1291.6617"
       y2="8035.5254" />
    <linearGradient
       inkscape:collect="always"
       xlink:href="#linearGradient2240"
       id="linearGradient1962-0"
       gradientUnits="userSpaceOnUse"
       x1="718.95471"
       y1="2132.9614"
       x2="723.86713"
       y2="2212.6089"
       gradientTransform="matrix(0.09388421,0,0,0.09388421,40.978449,22.964157)" />
    <linearGradient
       inkscape:collect="always"
       xlink:href="#linearGradient2258"
       id="linearGradient2004-7"
       gradientUnits="userSpaceOnUse"
       gradientTransform="matrix(-0.02389317,0.00679353,0.00679353,0.02389317,88.03218,20.728387)"
       x1="1371.7261"
       y1="8196.9072"
       x2="1378.1003"
       y2="8403.1338" />
    <linearGradient
       inkscape:collect="always"
       xlink:href="#linearGradient2252"
       id="linearGradient2006-5"
       gradientUnits="userSpaceOnUse"
       gradientTransform="matrix(-0.09179403,0.01970025,0.01970025,0.09179403,100.82669,19.841977)"
       x1="361.03314"
       y1="2140.1482"
       x2="365.08212"
       y2="2183.1216" />
    <linearGradient
       inkscape:collect="always"
       xlink:href="#linearGradient2246"
       id="linearGradient2024-7"
       gradientUnits="userSpaceOnUse"
       gradientTransform="matrix(-0.02417357,0.00571611,0.00571611,0.02417357,96.4076,19.772137)"
       x1="1372.1874"
       y1="7837.9092"
       x2="1292.9696"
       y2="8000.4956" />
    <linearGradient
       inkscape:collect="always"
       xlink:href="#linearGradient2905"
       id="linearGradient2878"
       gradientUnits="userSpaceOnUse"
       gradientTransform="matrix(-0.09282992,0.01403041,0.01403041,0.09282992,109.55031,63.437033)"
       x1="365.48102"
       y1="2125.3853"
       x2="371.63745"
       y2="2161.6978" />
    <linearGradient
       inkscape:collect="always"
       xlink:href="#linearGradient2252"
       id="linearGradient2882"
       gradientUnits="userSpaceOnUse"
       gradientTransform="matrix(-0.09387185,-0.00154127,-0.00152339,0.09497335,140.59915,65.421003)"
       x1="361.03314"
       y1="2140.1482"
       x2="365.08212"
       y2="2183.1216" />
    <linearGradient
       inkscape:collect="always"
       xlink:href="#linearGradient2899"
       id="linearGradient2892"
       gradientUnits="userSpaceOnUse"
       gradientTransform="matrix(-0.09380067,-0.00395974,-0.00395974,0.09380067,146.67996,68.503553)"
       x1="367.8295"
       y1="2134.2703"
       x2="372.53226"
       y2="2184.6799" />
    <linearGradient
       inkscape:collect="always"
       xlink:href="#linearGradient2258"
       id="linearGradient2886"
       gradientUnits="userSpaceOnUse"
       gradientTransform="matrix(0.02424053,1.4575525e-4,-1.4340719e-4,0.02463743,68.357597,68.016663)"
       x1="1367.8186"
       y1="7970.79"
       x2="1371.0911"
       y2="8087.0923" />
    <linearGradient
       inkscape:collect="always"
       xlink:href="#linearGradient2099"
       id="linearGradient2874"
       gradientUnits="userSpaceOnUse"
       gradientTransform="matrix(0.02457148,-0.00364384,0.00364384,0.02457148,37.412235,74.042533)"
       x1="1442.1904"
       y1="7807.418"
       x2="1291.6617"
       y2="8035.5254" />
    <linearGradient
       inkscape:collect="always"
       xlink:href="#linearGradient2800"
       id="linearGradient3398"
       x1="133.53568"
       y1="117.03629"
       x2="175.19211"
       y2="117.03629"
       gradientUnits="userSpaceOnUse"
       gradientTransform="translate(15.700355)" />
    <linearGradient
       inkscape:collect="always"
       xlink:href="#linearGradient2776"
       id="linearGradient3880"
       gradientUnits="userSpaceOnUse"
       x1="154.08569"
       y1="96.699989"
       x2="146.68535"
       y2="92.029808" />
    <linearGradient
       inkscape:collect="always"
       xlink:href="#linearGradient2784"
       id="linearGradient3882"
       gradientUnits="userSpaceOnUse"
       x1="154.1273"
       y1="110.64674"
       x2="140.26385"
       y2="102.47393" />
    <linearGradient
       inkscape:collect="always"
       xlink:href="#linearGradient2792"
       id="linearGradient3884"
       gradientUnits="userSpaceOnUse"
       x1="154.26683"
       y1="125.49115"
       x2="137.0531"
       y2="115.27514" />
    <linearGradient
       inkscape:collect="always"
       xlink:href="#linearGradient2752"
       id="linearGradient3886"
       gradientUnits="userSpaceOnUse"
       x1="154.56691"
       y1="125.29717"
       x2="171.21194"
       y2="115.47034" />
    <linearGradient
       inkscape:collect="always"
       xlink:href="#linearGradient2744"
       id="linearGradient3888"
       gradientUnits="userSpaceOnUse"
       x1="154.42453"
       y1="111.02402"
       x2="173.4745"
       y2="99.337807" />
    <linearGradient
       inkscape:collect="always"
       xlink:href="#linearGradient2736"
       id="linearGradient3890"
       gradientUnits="userSpaceOnUse"
       x1="154.37314"
       y1="96.49839"
       x2="161.91228"
       y2="91.948097" />
    <linearGradient
       inkscape:collect="always"
       xlink:href="#linearGradient2760"
       id="linearGradient3892"
       gradientUnits="userSpaceOnUse"
       x1="158.20222"
       y1="135.82431"
       x2="200.13654"
       y2="111.01402" />
    <linearGradient
       inkscape:collect="always"
       xlink:href="#linearGradient2768"
       id="linearGradient3894"
       gradientUnits="userSpaceOnUse"
       x1="154.4615"
       y1="145.9045"
       x2="165.17619"
       y2="130.92101" />
    <linearGradient
       inkscape:collect="always"
       xlink:href="#linearGradient2800"
       id="linearGradient3896"
       gradientUnits="userSpaceOnUse"
       x1="154.16229"
       y1="138.06499"
       x2="145.21844"
       y2="132.71375" />
    <linearGradient
       inkscape:collect="always"
       xlink:href="#linearGradient2808"
       id="linearGradient3898"
       gradientUnits="userSpaceOnUse"
       x1="154.15741"
       y1="146.19638"
       x2="149.79132"
       y2="139.6776" />
    <linearGradient
       inkscape:collect="always"
       xlink:href="#linearGradient2800"
       id="linearGradient3900"
       gradientUnits="userSpaceOnUse"
       x1="154.16229"
       y1="138.06499"
       x2="145.21844"
       y2="132.71375" />
    <linearGradient
       inkscape:collect="always"
       xlink:href="#linearGradient2808"
       id="linearGradient3902"
       gradientUnits="userSpaceOnUse"
       x1="154.15741"
       y1="146.19638"
       x2="149.79132"
       y2="139.6776" />
  </defs>
  <sodipodi:namedview
     units="px"
     inkscape:snap-global="true"
     id="base"
     pagecolor="#ffffff"
     bordercolor="#666666"
     borderopacity="1.0"
     inkscape:pageopacity="0.0"
     inkscape:pageshadow="2"
     inkscape:zoom="6.6445541"
     inkscape:cx="21.147105"
     inkscape:cy="31.439777"
     inkscape:document-units="px"
     inkscape:current-layer="layer1"
     inkscape:document-rotation="0"
     showgrid="false"
     inkscape:window-width="1440"
     inkscape:window-height="855"
     inkscape:window-x="0"
     inkscape:window-y="23"
     inkscape:window-maximized="1"
     showborder="true" />
  <metadata
     id="metadata1399">
    <rdf:RDF>
      <cc:Work
         rdf:about="">
        <dc:format>image/svg+xml</dc:format>
        <dc:type
           rdf:resource="http://purl.org/dc/dcmitype/StillImage" />
        <dc:title></dc:title>
      </cc:Work>
    </rdf:RDF>
  </metadata>
  <g
     inkscape:label="Layer 1"
     inkscape:groupmode="layer"
     id="layer1">
    <g
       inkscape:export-ydpi="96"
       inkscape:export-xdpi="96"
       id="g3972"
       transform="matrix(0.20337391,0,0,0.20337391,-27.999759,-15.748745)">
      <path
         id="path3390"
         d="m 149.23604,117.03629 20.82853,12.28131 20.8279,-12.28131 -20.8279,-12.28131 z"
         style="fill:url(#linearGradient3398);fill-opacity:1;stroke:none;stroke-width:0.264583px;stroke-linecap:butt;stroke-linejoin:miter;stroke-opacity:1" />
      <path
         style="fill:#ffff00;stroke:none;stroke-width:0.318962px;stroke-linecap:butt;stroke-linejoin:miter;stroke-opacity:1"
         d="m 170.072,125.38746 20.63394,-12.34772 -20.66177,-9.34367 -20.60611,9.34367 z"
         id="path1128" />
      <g
         transform="translate(15.700355)"
         style="opacity:0.81"
         id="g2820">
        <path
           d="m 154.37168,78.752015 -7.87502,13.086201 7.87502,4.712802 z"
           style="fill:url(#linearGradient3880);fill-opacity:1;stroke:none;stroke-width:0.318962px;stroke-linecap:butt;stroke-linejoin:miter;stroke-opacity:1"
           id="path1066" />
        <path
           d="m 146.49666,91.838216 -4.68913,7.79154 -1.69075,2.809614 14.2549,8.52977 V 96.551018 Z"
           style="fill:url(#linearGradient3882);fill-opacity:1;stroke:none;stroke-width:0.318962px;stroke-linecap:butt;stroke-linejoin:miter;stroke-opacity:1"
           id="path1068" />
        <path
           d="m 140.1174,102.43875 -6.37988,10.60115 20.63416,12.34736 v -14.41812 z"
           style="fill:url(#linearGradient3884);fill-opacity:1;stroke:none;stroke-width:0.318962px;stroke-linecap:butt;stroke-linejoin:miter;stroke-opacity:1"
           id="path1070" />
      </g>
      <g
         transform="translate(15.700355)"
         style="opacity:0.81"
         id="g2815">
        <path
           d="m 168.62658,102.43937 -14.25427,8.53039 v 14.41812 l 20.63416,-12.34735 z"
           style="fill:url(#linearGradient3886);fill-opacity:1;stroke:none;stroke-width:0.318962px;stroke-linecap:butt;stroke-linejoin:miter;stroke-opacity:1"
           id="path1074" />
        <path
           d="m 162.2467,91.838216 -7.87502,4.712802 v 14.418122 l 14.2549,-8.52977 z"
           style="fill:url(#linearGradient3888);fill-opacity:1;stroke:none;stroke-width:0.318962px;stroke-linecap:butt;stroke-linejoin:miter;stroke-opacity:1"
           id="path1076" />
        <path
           d="m 154.37168,78.752015 v 17.799003 l 7.87502,-4.712802 z"
           style="fill:url(#linearGradient3890);fill-opacity:1;stroke:none;stroke-width:0.318962px;stroke-linecap:butt;stroke-linejoin:miter;stroke-opacity:1"
           id="path1078" />
      </g>
      <path
         id="path1052"
         d="m 170.072,125.38746 20.63394,-12.34772 -20.66177,-9.34367 -20.60611,9.34367 z"
         style="opacity:0.18;fill:#ffff00;stroke:none;stroke-width:0.318962px;stroke-linecap:butt;stroke-linejoin:miter;stroke-opacity:1" />
      <g
         transform="translate(15.700355)"
         style="opacity:0.81"
         id="g2828">
        <path
           d="m 175.19211,117.03629 -20.8279,12.28131 v 8.76027 l 10.03362,-5.91639 z"
           style="opacity:1;fill:url(#linearGradient3892);fill-opacity:1;stroke:none;stroke-width:0.318962px;stroke-linecap:butt;stroke-linejoin:miter;stroke-opacity:1"
           id="path1054" />
        <path
           d="m 164.39783,132.16148 -10.03362,5.91639 v 8.14289 z"
           style="opacity:1;fill:url(#linearGradient3894);fill-opacity:1;stroke:none;stroke-width:0.318962px;stroke-linecap:butt;stroke-linejoin:miter;stroke-opacity:1"
           id="path1056" />
      </g>
      <g
         transform="translate(15.700355)"
         style="opacity:0.81"
         id="g2824">
        <path
           d="m 133.53568,117.03629 10.7949,15.12519 10.03363,5.91639 v -8.76027 z"
           style="opacity:1;fill:url(#linearGradient3896);fill-opacity:1;stroke:none;stroke-width:0.318962px;stroke-linecap:butt;stroke-linejoin:miter;stroke-opacity:1"
           id="path1060" />
        <path
           d="m 144.33058,132.16148 10.03363,14.05928 v -8.14289 z"
           style="opacity:1;fill:url(#linearGradient3898);fill-opacity:1;stroke:none;stroke-width:0.318962px;stroke-linecap:butt;stroke-linejoin:miter;stroke-opacity:1"
           id="path1062" />
      </g>
      <g
         transform="translate(72.186532,-114.43573)"
         id="g3294">
        <path
           d="m 76.699518,227.11132 a 7.6336602,3.81683 75.425089 0 0 -1.83514,8.1008 7.62048,3.8102403 75.425089 0 1 -1.45228,7.94321 7.6336602,3.81683 75.425089 0 0 0.46105,-0.0618 7.6336602,3.81683 75.425089 0 0 0.28272,-0.0976 7.6336602,3.81683 75.425089 0 0 0.29403,-0.0524 7.6336602,3.81683 75.425089 0 0 1.83519,-8.10082 7.62048,3.8102403 75.425089 0 1 1.45226,-7.94325 7.6336602,3.81683 75.425089 0 0 -0.46109,0.0619 7.6336602,3.81683 75.425089 0 0 -0.28251,0.0976 7.6336602,3.81683 75.425089 0 0 -0.29423,0.0524 z"
           style="fill:url(#linearGradient1982-0);fill-opacity:1;stroke:none;stroke-width:0.0178773;stroke-miterlimit:4;stroke-dasharray:none"
           id="path1885-6" />
        <path
           id="path1887-5"
           style="fill:url(#linearGradient1984-5);fill-opacity:1;stroke:none;stroke-width:0.0178773;stroke-miterlimit:4;stroke-dasharray:none"
           d="m 77.306438,227.22328 a 7.6336605,3.81683 86.842062 0 0 -0.4642,-0.0306 7.6336605,3.81683 86.842062 0 0 -0.29627,0.0397 7.6336605,3.81683 86.842062 0 0 -0.29879,-0.008 7.6336605,3.81683 86.842062 0 0 -3.40234,7.57728 7.62048,3.8102403 86.842062 0 1 -2.99589,7.49855 7.6336605,3.81683 86.842062 0 0 0.46415,0.0307 7.6336605,3.81683 86.842062 0 0 0.29645,-0.0397 7.6336605,3.81683 86.842062 0 0 0.29861,0.008 7.6336605,3.81683 86.842062 0 0 0.11313,-0.01 7.62048,3.8102403 86.842062 0 1 -0.45413,0.18237 7.6336605,3.81683 86.842062 0 0 0.46418,0.0307 7.6336605,3.81683 86.842062 0 0 0.29647,-0.0397 7.6336605,3.81683 86.842062 0 0 0.29855,0.008 7.6336605,3.81683 86.842062 0 0 3.40242,-7.57725 7.62048,3.8102403 86.842062 0 1 2.99586,-7.49861 7.6336605,3.81683 86.842062 0 0 -0.46421,-0.0306 7.6336605,3.81683 86.842062 0 0 -0.29625,0.0397 7.6336605,3.81683 86.842062 0 0 -0.29874,-0.008 7.6336605,3.81683 86.842062 0 0 -0.11314,0.01 7.62048,3.8102403 86.842062 0 1 0.45414,-0.18238 z" />
        <path
           id="path2550-7"
           style="opacity:0.0590717;fill:#000000;fill-opacity:1;stroke:none;stroke-width:0.0178773;stroke-miterlimit:4;stroke-dasharray:none"
           d="m 77.737338,226.89947 a 7.6336605,3.81683 75.425089 0 0 -0.4611,0.0619 7.6336605,3.81683 75.425089 0 0 -0.28251,0.0976 7.6336605,3.81683 75.425089 0 0 -0.1844,0.0273 3.81683,7.633661 12.282279 0 0 -1.57906,1.26923 7.6336605,3.81683 75.425089 0 0 -0.36591,6.85661 7.62048,3.8102403 75.425089 0 1 -0.76416,7.40432 7.6336605,3.81683 82.053666 0 0 2.03243,-7.58183 7.62048,3.8102403 82.053666 0 1 -0.10863,-1.53356 7.62048,3.8102403 75.425089 0 1 1.71334,-6.60156 z" />
        <path
           id="path1931-3"
           style="fill:url(#linearGradient2010-0);fill-opacity:1;stroke:none;stroke-width:0.0178773;stroke-miterlimit:4;stroke-dasharray:none"
           d="m 78.309128,227.17393 a 3.81683,7.6336607 12.282279 0 0 -0.0297,-0.008 3.81683,7.6336607 12.282279 0 0 -0.26531,-0.0385 3.81683,7.6336607 12.282279 0 0 -0.2947,-0.0947 3.81683,7.6336607 12.282279 0 0 -0.0297,-0.008 3.81683,7.6336607 12.282279 0 0 -0.29613,-0.0406 3.81683,7.6336607 12.282279 0 0 -0.28617,-0.0862 3.81683,7.6336607 12.282279 0 0 -5.29687,6.39795 3.8102403,7.6204805 12.282279 0 1 -4.8841,6.43033 3.81683,7.6336607 12.282279 0 0 0.43926,0.15312 3.81683,7.6336607 12.282279 0 0 0.26551,0.0385 3.81683,7.6336607 12.282279 0 0 0.3243,0.10149 3.81683,7.6336607 12.282279 0 0 0.29632,0.0406 3.81683,7.6336607 12.282279 0 0 0.28598,0.0862 3.81683,7.6336607 12.282279 0 0 4.9919,-5.29176 7.6336605,3.81683 82.053666 0 0 0.0419,0.38122 7.62048,3.8102403 82.053666 0 1 -2.35948,7.72248 7.6336605,3.81683 82.053666 0 0 0.46514,-0.009 7.6336605,3.81683 82.053666 0 0 0.29207,-0.0644 7.6336605,3.81683 82.053666 0 0 0.2981,-0.0181 7.6336605,3.81683 82.053666 0 0 2.75805,-7.83487 7.62048,3.8102403 82.053666 0 1 0.38085,-5.19988 3.8102403,7.6204805 12.282279 0 1 3.31255,-2.51496 3.81683,7.6336607 12.282279 0 0 -0.40954,-0.14641 z" />
        <path
           id="path2170-4"
           style="opacity:0.124473;fill:#000000;fill-opacity:1;stroke:none;stroke-width:0.0178773;stroke-miterlimit:4;stroke-dasharray:none"
           d="m 77.256598,226.93867 a 3.81683,7.633661 12.282279 0 0 -1.22659,0.6688 3.81683,7.6336605 13.357176 0 0 -0.003,0.003 3.81683,7.6336605 13.357176 0 0 -0.87848,0.89699 3.81683,7.6336605 13.357176 0 0 -8.2e-4,8.1e-4 3.81683,7.633661 12.282279 0 0 -0.0108,0.0134 3.81683,7.633661 12.282279 0 0 -2.17555,4.77665 3.8102403,7.620481 12.282279 0 1 -4.471721,6.39095 3.81683,7.6336605 13.357176 0 0 0.0788,0.0121 3.81683,7.6336605 13.357176 0 0 0.18586,0.0543 3.81683,7.6336605 13.357176 0 0 0.10272,0.0214 3.81683,7.6336605 13.357176 0 0 0.10061,0.0268 3.81683,7.6336605 13.357176 0 0 0.19068,0.0351 3.81683,7.6336605 13.357176 0 0 0.18577,0.0544 3.81683,7.6336605 13.357176 0 0 0.66985,0.0404 3.81683,7.633661 12.282279 0 0 3.525611,-5.07681 7.6336605,3.81683 82.053666 0 0 0.0418,0.3812 7.62048,3.8102403 82.053666 0 1 0.10091,1.25674 3.81683,7.6336605 13.357176 0 0 1.07784,-2.89902 3.8102403,7.62048 13.357176 0 1 0.166169,-0.59935 7.62048,3.8102403 82.053666 0 1 0.48981,-3.16117 3.8102403,7.6204808 12.282279 0 1 3.312591,-2.51497 3.81683,7.633661 12.282279 0 0 -0.40957,-0.14643 v 4.7e-4 a 3.81683,7.633661 12.282279 0 0 -0.0298,-0.008 3.81683,7.633661 12.282279 0 0 -0.26533,-0.0385 3.81683,7.633661 12.282279 0 0 -0.29468,-0.0948 3.81683,7.633661 12.282279 0 0 -0.0298,-0.008 3.81683,7.633661 12.282279 0 0 -0.29613,-0.0406 3.81683,7.633661 12.282279 0 0 -0.13696,-0.0473 z" />
        <path
           id="path1933-3"
           style="fill:url(#linearGradient2012-7);fill-opacity:1;stroke:none;stroke-width:0.0178773;stroke-miterlimit:4;stroke-dasharray:none"
           d="m 77.210558,226.86934 a 3.81683,7.6336605 13.357176 0 0 -5.41597,6.29746 3.8102403,7.62048 13.357176 0 1 -5.00389,6.33756 3.81683,7.6336605 13.357176 0 0 0.4363,0.16134 3.81683,7.6336605 13.357176 0 0 0.19063,0.0351 3.81683,7.6336605 13.357176 0 0 0.18582,0.0543 3.81683,7.6336605 13.357176 0 0 0.10272,0.0214 3.81683,7.6336605 13.357176 0 0 0.10063,0.0268 3.81683,7.6336605 13.357176 0 0 0.19069,0.035 3.81683,7.6336605 13.357176 0 0 0.18576,0.0543 3.81683,7.6336605 13.357176 0 0 5.41602,-6.29745 3.8102403,7.62048 13.357176 0 1 5.00391,-6.33762 3.81683,7.6336605 13.357176 0 0 -0.43636,-0.16131 3.81683,7.6336605 13.357176 0 0 -0.19034,-0.035 3.81683,7.6336605 13.357176 0 0 -0.18612,-0.0544 3.81683,7.6336605 13.357176 0 0 -0.10261,-0.0214 3.81683,7.6336605 13.357176 0 0 -0.10074,-0.0269 3.81683,7.6336605 13.357176 0 0 -0.19047,-0.0351 3.81683,7.6336605 13.357176 0 0 -0.18598,-0.0543 z" />
      </g>
      <g
         transform="translate(84.153176,-103.85861)"
         id="g3301">
        <path
           id="path1865-7"
           style="fill:url(#linearGradient1962-0);fill-opacity:1;stroke:none;stroke-width:0.0178773;stroke-miterlimit:4;stroke-dasharray:none"
           d="m 106.6569,216.74162 a 3.81683,7.6336602 7.999646 0 1 2.75068,7.83738 3.8102403,7.62048 7.999646 0 0 2.35229,7.72466 3.81683,7.6336602 7.999646 0 1 -0.46509,-0.009 3.81683,7.6336602 7.999646 0 1 -0.29203,-0.0646 3.81683,7.6336602 7.999646 0 1 -0.2981,-0.0183 3.81683,7.6336602 7.999646 0 1 -2.75073,-7.8374 3.8102403,7.62048 7.999646 0 0 -2.35228,-7.7247 3.81683,7.6336602 7.999646 0 1 0.46514,0.009 3.81683,7.6336602 7.999646 0 1 0.29184,0.0645 3.81683,7.6336602 7.999646 0 1 0.29828,0.0184 z" />
        <path
           d="m 106.61791,216.82943 a 3.81683,7.6336605 0.64311169 0 1 0.46242,-0.0509 3.81683,7.6336605 0.64311169 0 1 0.29771,0.0266 3.81683,7.6336605 0.64311169 0 1 0.29821,-0.0201 3.81683,7.6336605 0.64311169 0 1 3.73153,7.42067 3.8102403,7.62048 0.64311169 0 0 3.32202,7.35989 3.81683,7.6336605 0.64311169 0 1 -0.46234,0.0511 3.81683,7.6336605 0.64311169 0 1 -0.29792,-0.0267 3.81683,7.6336605 0.64311169 0 1 -0.298,0.0201 3.81683,7.6336605 0.64311169 0 1 -0.11347,-0.005 3.8102403,7.62048 0.64311169 0 0 0.46172,0.16227 3.81683,7.6336605 0.64311169 0 1 -0.46241,0.0511 3.81683,7.6336605 0.64311169 0 1 -0.29791,-0.0267 3.81683,7.6336605 0.64311169 0 1 -0.29796,0.0201 3.81683,7.6336605 0.64311169 0 1 -3.73163,-7.42066 3.8102403,7.62048 0.64311169 0 0 -3.322,-7.35995 3.81683,7.6336605 0.64311169 0 1 0.46244,-0.0509 3.81683,7.6336605 0.64311169 0 1 0.2977,0.0266 3.81683,7.6336605 0.64311169 0 1 0.29815,-0.0201 3.81683,7.6336605 0.64311169 0 1 0.11346,0.005 3.8102403,7.62048 0.64311169 0 0 -0.4617,-0.16229 z"
           style="fill:url(#linearGradient2004-7);fill-opacity:1;stroke:none;stroke-width:0.0178773;stroke-miterlimit:4;stroke-dasharray:none"
           id="path1923-7" />
        <path
           d="m 105.51371,216.66852 a 7.6336607,3.81683 78.962181 0 1 0.0298,-0.007 7.6336607,3.81683 78.962181 0 1 0.26608,-0.0328 7.6336607,3.81683 78.962181 0 1 0.29667,-0.0883 7.6336607,3.81683 78.962181 0 1 0.0299,-0.007 7.6336607,3.81683 78.962181 0 1 0.29693,-0.0341 7.6336607,3.81683 78.962181 0 1 0.28797,-0.0799 7.6336607,3.81683 78.962181 0 1 5.15666,6.5115 7.6204805,3.8102403 78.962181 0 0 4.7433,6.53489 7.6336607,3.81683 78.962181 0 1 -0.44248,0.14353 7.6336607,3.81683 78.962181 0 1 -0.26627,0.0328 7.6336607,3.81683 78.962181 0 1 -0.32644,0.0944 7.6336607,3.81683 78.962181 0 1 -0.29713,0.0342 7.6336607,3.81683 78.962181 0 1 -0.28777,0.0799 7.6336607,3.81683 78.962181 0 1 -4.87582,-5.39892 3.81683,7.6336605 9.1907938 0 1 -0.0501,0.38022 3.8102403,7.62048 9.1907938 0 0 2.1912,7.77189 3.81683,7.6336605 9.1907938 0 1 -0.46485,-0.0183 3.81683,7.6336605 9.1907938 0 1 -0.2906,-0.0707 3.81683,7.6336605 9.1907938 0 1 -0.29762,-0.0244 3.81683,7.6336605 9.1907938 0 1 -2.58726,-7.89291 3.8102403,7.62048 9.1907938 0 0 -0.26782,-5.20695 7.6204805,3.8102403 78.962181 0 0 -3.25715,-2.5863 7.6336607,3.81683 78.962181 0 1 0.41262,-0.13747 z"
           style="fill:url(#linearGradient2006-5);fill-opacity:1;stroke:none;stroke-width:0.0178773;stroke-miterlimit:4;stroke-dasharray:none"
           id="path1925-9" />
        <path
           id="path2534-5"
           style="opacity:0.158228;fill:#000000;fill-opacity:1;stroke:none;stroke-width:0.0178773;stroke-miterlimit:4;stroke-dasharray:none"
           d="m 106.84978,216.60393 a 7.633661,3.81683 78.962181 0 0 -0.37008,0.0355 7.633661,3.81683 78.962181 0 0 -0.28799,0.0799 7.633661,3.81683 78.962181 0 0 -0.29691,0.0342 7.633661,3.81683 78.962181 0 0 -0.0298,0.007 7.633661,3.81683 78.962181 0 0 -0.29668,0.0884 7.633661,3.81683 78.962181 0 0 -0.26611,0.0328 7.633661,3.81683 78.962181 0 0 -0.0298,0.007 v -8.1e-4 a 7.633661,3.81683 78.962181 0 0 -0.0402,0.009 7.6336605,3.81683 76.696136 0 0 -0.004,0.002 7.62048,3.8102403 76.696136 0 1 4.99803,6.34228 7.6336605,3.81683 76.696136 0 0 5.41016,6.30246 7.6336605,3.81683 76.696136 0 0 0.003,-7.9e-4 7.6204808,3.8102403 78.962181 0 1 -4.00306,-6.39079 7.633661,3.81683 78.962181 0 0 -4.78659,-6.54706 z" />
        <path
           d="m 106.8625,216.2918 a 7.6336605,3.81683 76.696136 0 1 5.41012,6.3025 7.62048,3.8102403 76.696136 0 0 4.99799,6.34223 7.6336605,3.81683 76.696136 0 1 -0.43645,0.16092 7.6336605,3.81683 76.696136 0 1 -0.19066,0.035 7.6336605,3.81683 76.696136 0 1 -0.18588,0.0541 7.6336605,3.81683 76.696136 0 1 -0.10272,0.0214 7.6336605,3.81683 76.696136 0 1 -0.10069,0.0267 7.6336605,3.81683 76.696136 0 1 -0.1907,0.0349 7.6336605,3.81683 76.696136 0 1 -0.18582,0.0541 7.6336605,3.81683 76.696136 0 1 -5.41016,-6.3025 7.62048,3.8102403 76.696136 0 0 -4.998,-6.34226 7.6336605,3.81683 76.696136 0 1 0.43651,-0.1609 7.6336605,3.81683 76.696136 0 1 0.19036,-0.035 7.6336605,3.81683 76.696136 0 1 0.18618,-0.0542 7.6336605,3.81683 76.696136 0 1 0.10265,-0.0213 7.6336605,3.81683 76.696136 0 1 0.10074,-0.0268 7.6336605,3.81683 76.696136 0 1 0.19051,-0.035 7.6336605,3.81683 76.696136 0 1 0.18602,-0.0541 z"
           style="fill:url(#linearGradient2024-7);fill-opacity:1;stroke:none;stroke-width:0.0178773;stroke-miterlimit:4;stroke-dasharray:none"
           id="path1957-3" />
      </g>
      <g
         transform="translate(67.894138,-114.2713)"
         id="g3308">
        <path
           id="path2876"
           style="fill:url(#linearGradient2878);fill-opacity:1;stroke:none;stroke-width:0.0178773;stroke-miterlimit:4;stroke-dasharray:none"
           d="m 102.12089,260.3067 a 3.81683,7.6336605 5.9802142 0 0 -0.24928,0.0181 3.8102403,7.62048 5.9802142 0 1 2.623,7.63703 3.81683,7.6336605 5.9802142 0 0 3.02518,7.73558 3.81683,7.6336605 5.9802142 0 0 0.29858,0.008 3.81683,7.6336605 5.9802142 0 0 0.29408,0.0543 3.81683,7.6336605 5.9802142 0 0 0.46513,-0.008 3.8102403,7.62048 5.9802142 0 1 -2.62305,-7.63697 3.81683,7.6336605 5.9802142 0 0 -3.02512,-7.73555 3.81683,7.6336605 5.9802142 0 0 -0.29878,-0.008 3.81683,7.6336605 5.9802142 0 0 -0.2939,-0.0543 3.81683,7.6336605 5.9802142 0 0 -0.21584,-0.0103 z" />
        <path
           id="path2880"
           style="fill:url(#linearGradient2882);fill-opacity:1;stroke:none;stroke-width:0.0179818;stroke-miterlimit:4;stroke-dasharray:none"
           d="m 100.74683,260.49019 a 3.8168834,7.7231269 1.9663037 0 1 0.0305,8e-4 3.8168834,7.7231269 1.9663037 0 1 0.26661,0.0285 3.8168834,7.7231269 1.9663037 0 1 0.30897,-0.0192 3.8168834,7.7231269 1.9663037 0 1 0.0306,8e-4 3.8168834,7.7231269 1.9663037 0 1 0.29698,0.0341 3.8168834,7.7231269 1.9663037 0 1 0.29858,-0.013 3.8168834,7.7231269 1.9663037 0 1 3.55416,7.59532 3.8102934,7.7097922 1.9663037 0 0 3.14617,7.524 3.8168834,7.7231269 1.9663037 0 1 -0.46343,0.0406 3.8168834,7.7231269 1.9663037 0 1 -0.26681,-0.0285 3.8168834,7.7231269 1.9663037 0 1 -0.33931,0.0186 3.8168834,7.7231269 1.9663037 0 1 -0.29719,-0.0342 3.8168834,7.7231269 1.9663037 0 1 -0.29838,0.0131 3.8168834,7.7231269 1.9663037 0 1 -3.53164,-6.43462 3.8231051,7.7105582 21.847482 0 1 -0.13461,0.36333 3.8165043,7.6972451 21.847482 0 0 0.38077,8.16054 3.8231051,7.7105582 21.847482 0 1 -0.44872,-0.12416 3.8231051,7.7105582 21.847482 0 1 -0.26716,-0.136 3.8231051,7.7105582 21.847482 0 1 -0.28443,-0.0921 3.8231051,7.7105582 21.847482 0 1 -0.73929,-8.37025 3.8165043,7.6972451 21.847482 0 0 0.91416,-5.19331 3.8102934,7.7097922 1.9663037 0 0 -2.58949,-3.29283 3.8168834,7.7231269 1.9663037 0 1 0.43302,-0.0413 z" />
        <path
           d="m 102.56226,260.55469 a 3.81683,7.6336602 16.992185 0 1 1.49184,8.171 3.8102403,7.62048 16.992185 0 0 1.11596,7.9974 3.81683,7.6336602 16.992185 0 1 -0.45803,-0.0812 3.81683,7.6336602 16.992185 0 1 -0.27835,-0.10946 3.81683,7.6336602 16.992185 0 1 -0.29156,-0.0647 3.81683,7.6336602 16.992185 0 1 -1.49189,-8.17102 3.8102403,7.62048 16.992185 0 0 -1.11595,-7.99744 3.81683,7.6336602 16.992185 0 1 0.45807,0.0813 3.81683,7.6336602 16.992185 0 1 0.27815,0.10939 3.81683,7.6336602 16.992185 0 1 0.29175,0.0648 z"
           style="fill:url(#linearGradient2892);fill-opacity:1;stroke:none;stroke-width:0.0178773;stroke-miterlimit:4;stroke-dasharray:none"
           id="path2890" />
        <path
           id="path2884"
           style="fill:url(#linearGradient2886);fill-opacity:1;stroke:none;stroke-width:0.0175882;stroke-miterlimit:4;stroke-dasharray:none"
           d="m 102.13051,260.35296 a 7.5621761,3.7293362 74.231145 0 0 -0.44808,0.0742 7.5621761,3.7293362 74.231145 0 0 -0.27296,0.10457 7.5621761,3.7293362 74.231145 0 0 -0.28563,0.0601 7.5621761,3.7293362 74.231145 0 0 -1.569225,8.08254 7.5491192,3.7228979 74.231145 0 1 -1.20009,7.91569 7.5621761,3.7293362 74.231145 0 0 0.44804,-0.0741 7.5621761,3.7293362 74.231145 0 0 0.27313,-0.10467 7.5621761,3.7293362 74.231145 0 0 0.28543,-0.0601 7.5621761,3.7293362 74.231145 0 0 0.10546,-0.0346 7.5491192,3.7228979 74.231145 0 1 -0.39171,0.27771 7.5621761,3.7293362 74.231145 0 0 0.44809,-0.0741 7.5621761,3.7293362 74.231145 0 0 0.27312,-0.10464 7.5621761,3.7293362 74.231145 0 0 0.285415,-0.06 7.5621761,3.7293362 74.231145 0 0 1.56933,-8.08256 7.5491192,3.7228979 74.231145 0 1 1.20005,-7.91575 7.5621761,3.7293362 74.231145 0 0 -0.4481,0.0742 7.5621761,3.7293362 74.231145 0 0 -0.27296,0.10456 7.5621761,3.7293362 74.231145 0 0 -0.28556,0.0601 7.5621761,3.7293362 74.231145 0 0 -0.10545,0.0346 7.5491192,3.7228979 74.231145 0 1 0.3917,-0.27772 z" />
        <path
           d="m 100.48794,260.45806 a 7.6336605,3.81683 81.564782 0 0 -2.691035,7.85806 7.62048,3.8102403 81.564782 0 1 -2.29349,7.74232 7.6336605,3.81683 81.564782 0 0 0.46501,-0.0121 7.6336605,3.81683 81.564782 0 0 0.19005,-0.0382 7.6336605,3.81683 81.564782 0 0 0.19267,-0.0187 7.6336605,3.81683 81.564782 0 0 0.10335,-0.0182 7.6336605,3.81683 81.564782 0 0 0.10341,-0.0124 7.6336605,3.81683 81.564782 0 0 0.19008,-0.0382 7.6336605,3.81683 81.564782 0 0 0.19265,-0.0186 7.6336605,3.81683 81.564782 0 0 2.69107,-7.85808 7.62048,3.8102403 81.564782 0 1 2.293495,-7.74237 7.6336605,3.81683 81.564782 0 0 -0.46506,0.0122 7.6336605,3.81683 81.564782 0 0 -0.18976,0.0381 7.6336605,3.81683 81.564782 0 0 -0.19297,0.0187 7.6336605,3.81683 81.564782 0 0 -0.10324,0.0182 7.6336605,3.81683 81.564782 0 0 -0.1035,0.0124 7.6336605,3.81683 81.564782 0 0 -0.18992,0.0382 7.6336605,3.81683 81.564782 0 0 -0.19281,0.0186 z"
           style="fill:url(#linearGradient2874);fill-opacity:1;stroke:none;stroke-width:0.0178773;stroke-miterlimit:4;stroke-dasharray:none"
           id="path2872" />
      </g>
      <g
         transform="translate(15.700355)"
         id="g3316"
         style="opacity:0.81">
        <path
           id="path3310"
           style="fill:url(#linearGradient2778);fill-opacity:1;stroke:none;stroke-width:0.318962px;stroke-linecap:butt;stroke-linejoin:miter;stroke-opacity:1"
           d="m 154.37168,78.752015 -7.87502,13.086201 7.87502,4.712802 z" />
        <path
           id="path3312"
           style="fill:url(#linearGradient2786);fill-opacity:1;stroke:none;stroke-width:0.318962px;stroke-linecap:butt;stroke-linejoin:miter;stroke-opacity:1"
           d="m 146.49666,91.838216 -4.68913,7.79154 -1.69075,2.809614 14.2549,8.52977 V 96.551018 Z" />
        <path
           id="path3314"
           style="fill:url(#linearGradient2794);fill-opacity:1;stroke:none;stroke-width:0.318962px;stroke-linecap:butt;stroke-linejoin:miter;stroke-opacity:1"
           d="m 140.1174,102.43875 -6.37988,10.60115 20.63416,12.34736 v -14.41812 z" />
      </g>
      <g
         transform="translate(15.700355)"
         id="g3324"
         style="opacity:0.81">
        <path
           id="path3318"
           style="fill:url(#linearGradient2754);fill-opacity:1;stroke:none;stroke-width:0.318962px;stroke-linecap:butt;stroke-linejoin:miter;stroke-opacity:1"
           d="m 168.62658,102.43937 -14.25427,8.53039 v 14.41812 l 20.63416,-12.34735 z" />
        <path
           id="path3320"
           style="fill:url(#linearGradient2746);fill-opacity:1;stroke:none;stroke-width:0.318962px;stroke-linecap:butt;stroke-linejoin:miter;stroke-opacity:1"
           d="m 162.2467,91.838216 -7.87502,4.712802 v 14.418122 l 14.2549,-8.52977 z" />
        <path
           id="path3322"
           style="fill:url(#linearGradient2738);fill-opacity:1;stroke:none;stroke-width:0.318962px;stroke-linecap:butt;stroke-linejoin:miter;stroke-opacity:1"
           d="m 154.37168,78.752015 v 17.799003 l 7.87502,-4.712802 z" />
      </g>
      <path
         style="opacity:0.18;fill:#ffff00;stroke:none;stroke-width:0.318962px;stroke-linecap:butt;stroke-linejoin:miter;stroke-opacity:1"
         d="m 170.072,125.38746 20.63394,-12.34772 -20.66177,-9.34367 -20.60611,9.34367 z"
         id="path3326" />
      <g
         transform="translate(15.700355)"
         id="g3332"
         style="opacity:0.81">
        <path
           id="path3328"
           style="opacity:1;fill:url(#linearGradient2762);fill-opacity:1;stroke:none;stroke-width:0.318962px;stroke-linecap:butt;stroke-linejoin:miter;stroke-opacity:1"
           d="m 175.19211,117.03629 -20.8279,12.28131 v 8.76027 l 10.03362,-5.91639 z" />
        <path
           id="path3330"
           style="opacity:1;fill:url(#linearGradient2770);fill-opacity:1;stroke:none;stroke-width:0.318962px;stroke-linecap:butt;stroke-linejoin:miter;stroke-opacity:1"
           d="m 164.39783,132.16148 -10.03362,5.91639 v 8.14289 z" />
      </g>
      <g
         transform="translate(15.700355)"
         id="g3338"
         style="opacity:0.81">
        <path
           id="path3334"
           style="opacity:1;fill:url(#linearGradient3900);fill-opacity:1;stroke:none;stroke-width:0.318962px;stroke-linecap:butt;stroke-linejoin:miter;stroke-opacity:1"
           d="m 133.53568,117.03629 10.7949,15.12519 10.03363,5.91639 v -8.76027 z" />
        <path
           id="path3336"
           style="opacity:1;fill:url(#linearGradient3902);fill-opacity:1;stroke:none;stroke-width:0.318962px;stroke-linecap:butt;stroke-linejoin:miter;stroke-opacity:1"
           d="m 144.33058,132.16148 10.03363,14.05928 v -8.14289 z" />
      </g>
      <g
         transform="translate(80.381417,-102.1434)"
         id="g3286">
        <g
           id="g3271">
          <path
             d="m 95.201273,193.81764 -0.51994,0.3017 a 3.81683,7.6336605 0 0 0 2.33492,1.59517 3.81683,7.6336605 0 0 0 0.27058,-0.0193 3.81683,7.6336605 0 0 0 0.27106,0.0193 3.81683,7.6336605 0 0 0 0.46177,-0.0563 3.8102403,7.62048 0 0 1 -1.65556,-1.1659 z"
             style="opacity:0.113924;fill:#000000;fill-opacity:1;stroke:none;stroke-width:0.0178773;stroke-miterlimit:4;stroke-dasharray:none"
             id="path2088-2" />
          <path
             d="m 90.259013,180.71416 a 3.81683,7.6336602 0 0 0 -0.46182,0.0561 3.8102403,7.62048 0 0 1 3.4044,7.32218 3.81683,7.6336602 0 0 0 3.81468,7.37832 3.81683,7.6336602 0 0 0 0.27057,-0.0192 3.81683,7.6336602 0 0 0 0.27106,0.0192 3.81683,7.6336602 0 0 0 0.46178,-0.0562 3.8102403,7.62048 0 0 1 -3.40443,-7.32214 3.81683,7.6336602 0 0 0 -3.81461,-7.37831 3.81683,7.6336602 0 0 0 -0.27086,0.0192 3.81683,7.6336602 0 0 0 -0.27077,-0.0192 z"
             style="fill:url(#linearGradient1992-6);fill-opacity:1;stroke:none;stroke-width:0.0178773;stroke-miterlimit:4;stroke-dasharray:none"
             id="path1907-3" />
          <path
             d="m 85.956643,194.6931 a 7.62048,3.8102403 80.294009 0 1 -1.85738,2.44331 7.6336605,3.81683 80.294009 0 0 0.46463,-0.0224 7.6336605,3.81683 80.294009 0 0 0.4346,-0.12833 7.62048,3.8102403 80.294009 0 1 -0.30332,0.15084 7.6336605,3.81683 80.294009 0 0 0.46464,-0.0224 7.6336605,3.81683 80.294009 0 0 1.93521,-1.75083 z"
             style="opacity:0.113924;fill:#000000;fill-opacity:1;stroke:none;stroke-width:0.0178773;stroke-miterlimit:4;stroke-dasharray:none"
             id="path2073-7" />
          <path
             d="m 93.544843,194.77877 -1.00424,0.58274 a 3.81683,7.6336605 9.7059911 0 0 1.89392,1.66652 3.81683,7.6336605 9.7059911 0 0 0.46464,0.0224 3.8102403,7.62048 9.7059911 0 1 -0.0805,-0.0342 3.81683,7.6336605 9.7059911 0 0 0.0619,0.0118 3.81683,7.6336605 9.7059911 0 0 0.46463,0.0223 3.8102403,7.62048 9.7059911 0 1 -1.80037,-2.27166 z"
             style="opacity:0.113924;fill:#000000;fill-opacity:1;stroke:none;stroke-width:0.0178773;stroke-miterlimit:4;stroke-dasharray:none"
             id="path2078-1" />
          <path
             d="m 90.320563,180.76538 a 3.81683,7.6336605 9.7059911 0 0 -0.13555,0.005 3.8102403,7.62048 0 0 1 2.24765,2.10465 v 0.87669 a 3.8102403,7.6204805 0 0 1 0.76892,4.34083 3.81683,7.6336607 0 0 0 1.59206,5.95039 l 1.04518,-0.6065 a 3.8102403,7.6204805 0 0 1 -1.22357,-5.34389 3.81683,7.6336607 0 0 0 -0.41748,-3.22421 l -0.7929,-1.32926 a 3.81683,7.6336605 9.7059911 0 0 -2.30912,-2.74619 3.81683,7.6336605 9.7059911 0 0 -0.46468,-0.0224 3.8102403,7.62048 9.7059911 0 1 0.0807,0.0342 3.81683,7.6336605 9.7059911 0 0 -0.062,-0.0117 3.81683,7.6336605 9.7059911 0 0 -0.32913,-0.0274 z"
             style="opacity:0.113924;fill:#000000;fill-opacity:1;stroke:none;stroke-width:0.13695px;stroke-linecap:butt;stroke-linejoin:miter;stroke-opacity:1"
             id="path2493-8" />
          <path
             d="m 84.562973,193.87284 -1.52292,0.89633 a 3.8102403,7.62048 0 0 1 -1.51967,0.99919 3.81683,7.6336605 0 0 0 0.46178,0.0563 3.81683,7.6336605 0 0 0 0.29819,-0.0234 3.81683,7.6336605 0 0 0 0.29774,0.0234 3.81683,7.6336605 0 0 0 2.40425,-1.70491 z"
             style="opacity:0.113924;fill:#000000;fill-opacity:1;stroke:none;stroke-width:0.0178773;stroke-miterlimit:4;stroke-dasharray:none"
             id="path2083-9" />
          <path
             d="m 88.739433,180.71416 a 3.81683,7.6336602 0 0 0 -3.81461,7.37831 3.8102403,7.62048 0 0 1 -3.40443,7.32213 3.81683,7.6336602 0 0 0 0.46178,0.0562 3.81683,7.6336602 0 0 0 0.29818,-0.0234 3.81683,7.6336602 0 0 0 0.29775,0.0234 3.81683,7.6336602 0 0 0 3.81466,-7.37833 3.8102403,7.62048 0 0 1 3.40443,-7.32218 3.81683,7.6336602 0 0 0 -0.46184,-0.0561 3.81683,7.6336602 0 0 0 -0.29797,0.0234 3.81683,7.6336602 0 0 0 -0.29795,-0.0234 z"
             style="fill:url(#linearGradient2161-7);fill-opacity:1;stroke:none;stroke-width:0.0178773;stroke-miterlimit:4;stroke-dasharray:none"
             id="path1943-3" />
          <path
             d="m 89.375903,180.71429 a 3.81683,7.6336605 0 0 0 -3.79041,7.37816 3.8102403,7.62048 0 0 1 -3.40442,7.32214 3.81683,7.6336605 0 0 0 0.43902,0.0561 3.81683,7.6336605 0 0 0 3.79387,-7.37822 3.8102403,7.62048 0 0 1 0.37804,-3.06275 7.6336605,3.81683 80.294009 0 1 2.60506,-4.23687 7.6336605,3.81683 80.294009 0 1 0.32914,-0.0275 v 5e-5 a 7.6336605,3.81683 80.294009 0 1 0.0792,0.002 3.81683,7.6336605 0 0 0 -0.42971,-0.0529 z"
             style="opacity:0.0379747;fill:#000000;fill-opacity:1;stroke:none;stroke-width:0.0178773;stroke-miterlimit:4;stroke-dasharray:none"
             id="path2309-7" />
          <path
             d="m 89.065703,180.76538 a 7.6336602,3.81683 80.294009 0 0 -0.32913,0.0275 7.6336602,3.81683 80.294009 0 0 -2.51608,7.91584 7.62048,3.8102403 80.294009 0 1 -2.12122,7.79127 7.6336602,3.81683 80.294009 0 0 0.46464,-0.0225 7.6336602,3.81683 80.294009 0 0 0.43459,-0.12838 7.62048,3.8102403 80.294009 0 1 -0.30332,0.15089 7.6336602,3.81683 80.294009 0 0 0.46464,-0.0225 7.6336602,3.81683 80.294009 0 0 2.51614,-7.91582 7.62048,3.8102403 80.294009 0 1 2.12123,-7.79134 7.6336602,3.81683 80.294009 0 0 -0.46469,0.0226 7.6336602,3.81683 80.294009 0 0 -0.43496,0.12856 7.62048,3.8102403 80.294009 0 1 0.30371,-0.15113 7.6336602,3.81683 80.294009 0 0 -0.13555,-0.005 z"
             style="fill:url(#linearGradient2018-4);fill-opacity:1;stroke:none;stroke-width:0.0178773;stroke-miterlimit:4;stroke-dasharray:none"
             id="path1945-4" />
          <path
             d="m 89.932733,180.76538 a 3.81683,7.6336602 9.7059911 0 0 -0.13554,0.005 3.8102403,7.62048 9.7059911 0 1 2.12121,7.79132 3.81683,7.6336602 9.7059911 0 0 2.51614,7.91584 3.81683,7.6336602 9.7059911 0 0 0.46463,0.0225 3.8102403,7.62048 9.7059911 0 1 -0.0805,-0.0342 3.81683,7.6336602 9.7059911 0 0 0.0619,0.0117 3.81683,7.6336602 9.7059911 0 0 0.46465,0.0225 3.8102403,7.62048 9.7059911 0 1 -2.12122,-7.79128 3.81683,7.6336602 9.7059911 0 0 -2.51608,-7.91583 3.81683,7.6336602 9.7059911 0 0 -0.46469,-0.0226 3.8102403,7.62048 9.7059911 0 1 0.0807,0.0342 3.81683,7.6336602 9.7059911 0 0 -0.062,-0.0118 3.81683,7.6336602 9.7059911 0 0 -0.32914,-0.0275 z"
             style="fill:url(#linearGradient2020-3);fill-opacity:1;stroke:none;stroke-width:0.0178773;stroke-miterlimit:4;stroke-dasharray:none"
             id="path1949-8" />
          <path
             d="m 89.797173,180.77469 v 0.51738 a 3.8102403,7.6204805 9.7059911 0 1 1.3452,7.26952 3.81683,7.6336607 9.7059911 0 0 0.12381,4.86004 l 0.68709,-0.39868 a 3.81683,7.6336607 9.7059911 0 1 -0.035,-4.46136 3.8102403,7.6204805 9.7059911 0 0 0.009,-4.22113 l -2.12679,-3.56554 a 3.81683,7.6336607 9.7059911 0 0 -0.003,0 z"
             style="opacity:0.0738397;fill:#000000;fill-opacity:1;stroke:none;stroke-width:0.0178773;stroke-miterlimit:4;stroke-dasharray:none"
             id="path2344" />
          <path
             d="m 89.797173,180.77032 -0.0249,0.0864 a 7.6204808,3.8102403 80.294009 0 1 0.0249,-0.0128 z m 0,0.0974 a 7.633661,3.81683 80.294009 0 0 -0.0313,0.011 l -0.18019,0.62476 a 7.6204808,3.8102403 80.294009 0 1 0.21143,-0.22779 z m -1.53204,5.21488 -0.63105,2.18822 a 7.6204808,3.8102403 80.294009 0 0 0.0419,0.29075 7.633661,3.81683 80.294009 0 1 -0.0317,4.44534 l 0.6719,0.39546 a 7.633661,3.81683 80.294009 0 0 0.11911,-4.8408 7.6204808,3.8102403 80.294009 0 1 -0.1701,-2.47897 z"
             style="opacity:0.0654008;fill:#000000;fill-opacity:1;stroke:none;stroke-width:0.0178773;stroke-miterlimit:4;stroke-dasharray:none"
             id="path2357" />
        </g>
      </g>
      <g
         transform="translate(15.700355)"
         style="opacity:0.81"
         id="g3358">
        <path
           d="m 133.53568,117.03629 10.7949,15.12519 10.03363,5.91639 v -8.76027 z"
           style="opacity:1;fill:url(#linearGradient2802);fill-opacity:1;stroke:none;stroke-width:0.318962px;stroke-linecap:butt;stroke-linejoin:miter;stroke-opacity:1"
           id="path3354" />
        <path
           d="m 144.33058,132.16148 10.03363,14.05928 v -8.14289 z"
           style="opacity:1;fill:url(#linearGradient2810);fill-opacity:1;stroke:none;stroke-width:0.318962px;stroke-linecap:butt;stroke-linejoin:miter;stroke-opacity:1"
           id="path3356" />
      </g>
    </g>
  </g>
</svg>
