<?xml version="1.0" encoding="UTF-8" standalone="no"?>
<svg
   xmlns:dc="http://purl.org/dc/elements/1.1/"
   xmlns:cc="http://creativecommons.org/ns#"
   xmlns:rdf="http://www.w3.org/1999/02/22-rdf-syntax-ns#"
   xmlns:svg="http://www.w3.org/2000/svg"
   xmlns="http://www.w3.org/2000/svg"
   xmlns:sodipodi="http://sodipodi.sourceforge.net/DTD/sodipodi-0.dtd"
   xmlns:inkscape="http://www.inkscape.org/namespaces/inkscape"
   inkscape:version="1.0 (4035a4f, 2020-05-01)"
   sodipodi:docname="meetup.svg"
   xml:space="preserve"
   enable-background="new 0 0 525 500"
   viewBox="0 0 54 49"
   height="49"
   width="54"
   y="0px"
   x="0px"
   id="Layer_1"
   version="1.1"><metadata
   id="metadata1474"><rdf:RDF><cc:Work
       rdf:about=""><dc:format>image/svg+xml</dc:format><dc:type
         rdf:resource="http://purl.org/dc/dcmitype/StillImage" /><dc:title></dc:title></cc:Work></rdf:RDF></metadata><defs
   id="defs1472" /><sodipodi:namedview
   inkscape:current-layer="Layer_1"
   inkscape:window-maximized="1"
   inkscape:window-y="23"
   inkscape:window-x="0"
   inkscape:cy="21.137009"
   inkscape:cx="25.493705"
   inkscape:zoom="8.7696279"
   showgrid="false"
   id="namedview1470"
   inkscape:window-height="855"
   inkscape:window-width="1440"
   inkscape:pageshadow="2"
   inkscape:pageopacity="0"
   guidetolerance="10"
   gridtolerance="10"
   objecttolerance="10"
   borderopacity="1"
   bordercolor="#666666"
   pagecolor="#ffffff" />
<path
   style="stroke-width:0.0952382;fill:#ffffff"
   id="path1467"
   d="m 45.119375,31.305059 c 0.0039,4.334099 -3.117241,8.067722 -7.361435,8.801818 -0.534382,0.09171 -1.074001,0.146 -1.616288,0.140857 -0.182857,-0.002 -0.254666,0.07114 -0.312667,0.238667 -0.847334,2.432764 -2.538288,3.882956 -5.092671,4.248671 -1.689811,0.241714 -3.223241,-0.211429 -4.567433,-1.267906 -0.187238,-0.147239 -0.301715,-0.149715 -0.496953,-0.01019 -1.572192,1.124477 -3.334956,1.622478 -5.25991,1.506192 -3.756289,-0.226762 -6.916864,-3.097717 -7.508102,-6.799816 -0.04067,-0.255905 -0.0839,-0.513715 -0.08781,-0.77162 -0.0039,-0.214476 -0.08533,-0.297238 -0.290191,-0.337334 C 11.388676,36.832683 10.356675,36.364302 9.4461981,35.651634 7.7705775,34.339728 6.7652432,32.626774 6.5312429,30.507915 6.2643855,28.08277 7.0134339,25.985911 8.7193403,24.238576 8.8568642,24.098385 8.8654357,24.000766 8.7716263,23.835908 8.1158161,22.690955 7.8049587,21.450859 7.8554349,20.13581 c 0.1259049,-3.282003 2.4097161,-5.99353 5.5863861,-6.664864 0.367524,-0.07809 0.560191,-0.222191 0.721715,-0.570477 1.566859,-3.3757168 4.197718,-5.4287666 7.848484,-6.1059101 2.562764,-0.4756195 4.980385,0.033619 7.223816,1.3531441 0.188572,0.1112382 0.346477,0.1201906 0.550572,0.060762 3.563147,-1.0338105 6.720388,-0.2817146 9.400771,2.266954 1.585145,1.506859 2.453622,3.413908 2.710765,5.58953 0.05629,0.475619 0.0819,0.955715 0.04571,1.433906 -0.01362,0.180857 0.042,0.256476 0.213238,0.31981 1.606288,0.594572 2.713908,1.703335 3.19848,3.343336 0.603524,2.040002 0.09657,3.828861 -1.427811,5.316291 -0.132096,0.129143 -0.104191,0.208191 -0.02933,0.337238 0.80562,1.387907 1.222954,2.881813 1.221144,4.489529 z M 29.220408,30.609153 c 0.0013,1.844097 1.185144,3.474004 2.863907,4.027814 0.841334,0.277809 1.709145,0.409619 2.590003,0.448381 0.628857,0.02714 1.256668,-0.01676 1.837716,-0.306381 0.456857,-0.228096 0.672096,-0.604858 0.651429,-1.106859 -0.02067,-0.505333 -0.246953,-0.883238 -0.730286,-1.084382 -0.168001,-0.06981 -0.338572,-0.126666 -0.516953,-0.157619 -0.533144,-0.09514 -1.068859,-0.175238 -1.599335,-0.280381 -0.875525,-0.174381 -1.242668,-0.63781 -1.254287,-1.523144 -0.01019,-0.783144 0.202286,-1.521811 0.443238,-2.252574 0.440763,-1.33762 1.035049,-2.612479 1.604573,-3.897813 0.54981,-1.241239 1.126192,-2.472288 1.514573,-3.779623 0.213905,-0.717905 0.316001,-1.437716 0.121524,-2.180192 -0.296,-1.126954 -0.971334,-1.882288 -2.135811,-2.099526 -1.066097,-0.198381 -2.127241,-0.220953 -3.091337,0.414857 -0.320571,0.210667 -0.628857,0.160286 -0.907143,-0.08533 -0.212572,-0.186762 -0.414858,-0.384477 -0.622953,-0.576382 -0.98343,-0.907905 -2.283622,-0.952477 -3.339432,-0.123333 -0.426001,0.334667 -0.784477,0.74962 -1.24724,1.040382 -0.413524,0.259714 -0.830477,0.333333 -1.288382,0.08914 -0.436191,-0.232667 -0.88781,-0.437429 -1.338287,-0.64162 -0.456286,-0.206095 -0.898286,-0.460667 -1.411906,-0.504 -1.624573,-0.138286 -3.32467,0.827143 -4.041337,2.294668 -0.318,0.64943 -0.57762,1.324097 -0.82381,2.003145 -1.136763,3.139241 -2.062669,6.345625 -3.020956,9.540962 -0.429143,1.430097 0.07733,2.837336 1.288287,3.609718 0.944763,0.602096 1.97924,0.750953 3.050194,0.429143 0.867619,-0.261143 1.342763,-0.959525 1.674858,-1.744097 1.10362,-2.602764 2.097526,-5.249719 3.149527,-7.87315 0.289524,-0.721906 0.56981,-1.446859 0.876953,-2.160955 0.310096,-0.721048 1.201144,-0.966668 1.729716,-0.488477 0.322667,0.291905 0.407715,0.680477 0.376096,1.095906 -0.03476,0.444001 -0.206762,0.853525 -0.368286,1.261335 -0.684477,1.730478 -1.38162,3.455908 -2.069145,5.185052 -0.138952,0.349715 -0.289524,0.696573 -0.350953,1.071906 -0.105238,0.644477 0.149905,1.215716 0.677049,1.443049 0.53781,0.232096 1.096096,0.270858 1.65362,0.06848 0.648763,-0.235144 1.036477,-0.743049 1.335144,-1.329907 1.026192,-2.01524 2.044479,-4.035432 3.070003,-6.050767 0.473715,-0.931049 0.955716,-1.857716 1.439621,-2.783241 0.17981,-0.343048 0.390476,-0.668096 0.726382,-0.881334 0.303238,-0.191905 0.63,-0.206191 0.940858,-0.03162 0.303333,0.169905 0.323619,0.480191 0.310857,0.786477 -0.007,0.164666 -0.05305,0.325619 -0.116381,0.478762 -0.132953,0.318476 -0.257143,0.641715 -0.404572,0.953906 -0.852953,1.794382 -1.718859,3.581813 -2.564193,5.3801 -0.356286,0.758953 -0.727143,1.521525 -0.683143,2.319526 z M 41.18461,43.833452 c 0.002,-1.190287 -0.995716,-2.185526 -2.195812,-2.188764 -1.229715,-0.0045 -2.227335,0.97962 -2.232669,2.200383 -0.0051,1.193334 1.009525,2.205907 2.209431,2.20743 1.216858,0.0012 2.217145,-0.998953 2.21905,-2.219049 z M 4.0886691,25.593339 c 1.1573345,0.0026 2.131145,-0.964763 2.1265735,-2.111717 -0.00524,-1.148858 -0.9582866,-2.10143 -2.1059068,-2.104668 -1.1761916,-0.0031 -2.110002,0.930001 -2.1093354,2.108002 9.524e-4,1.16562 0.932001,2.105811 2.0886687,2.108383 z M 30.003647,2.0015066 c -1.163144,-0.00648 -2.111145,0.9234295 -2.117717,2.0761925 -0.007,1.1515249 0.93762,2.0976211 2.094955,2.0988592 1.152763,6.666e-4 2.078668,-0.9227628 2.080763,-2.0762878 0.0028,-1.1591439 -0.912953,-2.0929544 -2.058001,-2.0987639 z M 47.128996,15.051424 c -0.0051,-0.955811 -0.82,-1.768669 -1.77962,-1.775145 -0.97962,-0.007 -1.809431,0.820763 -1.802859,1.798383 0.007,0.975144 0.798001,1.756954 1.778954,1.758287 1.010572,0.002 1.80924,-0.787619 1.803525,-1.781525 z M 10.438199,9.9477052 c 0,0.8976188 0.698572,1.6019058 1.590287,1.6032388 0.903239,0.0012 1.603907,-0.706858 1.600668,-1.6174298 -0.0032,-0.883239 -0.703048,-1.5740967 -1.59162,-1.57143 -0.913811,0.00181 -1.598859,0.680953 -1.599335,1.585621 z M 27.143548,46.968788 c 0.0077,-0.74762 -0.607429,-1.363335 -1.363525,-1.366001 -0.776096,-0.0024 -1.38562,0.599048 -1.38362,1.364763 0.002,0.755334 0.608382,1.353716 1.370858,1.353716 0.761811,6.66e-4 1.369716,-0.596477 1.376287,-1.352478 z M 48.474426,25.726577 c -0.726381,-0.0052 -1.356477,0.624858 -1.350668,1.350573 0.0063,0.717143 0.604953,1.305906 1.329906,1.307334 0.760001,0.0014 1.330002,-0.558191 1.331811,-1.309239 0.0021,-0.743239 -0.581524,-1.343525 -1.311049,-1.348668 z M 16.571157,0.67874336 C 15.930776,0.67617336 15.43649,1.1653153 15.43649,1.802554 c 0,0.6332387 0.499429,1.1256202 1.139239,1.1223821 0.620953,-0.00324 1.107525,-0.4982862 1.107525,-1.1270487 9.5e-5,-0.6345721 -0.478858,-1.11590594 -1.112097,-1.11914404 z M 51.008714,19.691047 c -0.522,-0.0059 -0.995048,0.461334 -1.00162,0.990573 -0.007,0.547334 0.448477,1.002858 1.004192,1.004191 0.551905,0.002 0.984763,-0.427143 0.988668,-0.981525 0.0052,-0.557619 -0.434287,-1.006191 -0.99124,-1.013239 z M 11.479819,39.405162 c 0.0025,-0.529906 -0.454381,-0.986097 -0.992572,-0.991144 -0.5455246,-0.0047 -0.9940012,0.454286 -0.9900964,1.012572 0.00448,0.545429 0.4471433,0.976287 0.9984774,0.972477 0.540952,-0.0033 0.982382,-0.448571 0.984191,-0.993905 z"
   fill="#f64060" />
</svg>
