<?xml version="1.0" encoding="UTF-8" standalone="no"?>
<svg
   xmlns:dc="http://purl.org/dc/elements/1.1/"
   xmlns:cc="http://creativecommons.org/ns#"
   xmlns:rdf="http://www.w3.org/1999/02/22-rdf-syntax-ns#"
   xmlns:svg="http://www.w3.org/2000/svg"
   xmlns="http://www.w3.org/2000/svg"
   xmlns:sodipodi="http://sodipodi.sourceforge.net/DTD/sodipodi-0.dtd"
   xmlns:inkscape="http://www.inkscape.org/namespaces/inkscape"
   viewBox="0 0 52 36"
   preserveAspectRatio="xMidYMid meet"
   focusable="false"
   class="style-scope ytd-topbar-logo-renderer"
   style="display:block"
   version="1.1"
   id="svg868"
   sodipodi:docname="youtube.svg"
   width="52"
   height="36"
   inkscape:version="1.0 (4035a4f, 2020-05-01)">
  <metadata
     id="metadata874">
    <rdf:RDF>
      <cc:Work
         rdf:about="">
        <dc:format>image/svg+xml</dc:format>
        <dc:type
           rdf:resource="http://purl.org/dc/dcmitype/StillImage" />
        <dc:title></dc:title>
      </cc:Work>
    </rdf:RDF>
  </metadata>
  <defs
     id="defs872" />
  <sodipodi:namedview
     inkscape:document-rotation="0"
     pagecolor="#ffffff"
     bordercolor="#666666"
     borderopacity="1"
     objecttolerance="10"
     gridtolerance="10"
     guidetolerance="10"
     inkscape:pageopacity="0"
     inkscape:pageshadow="2"
     inkscape:window-width="1440"
     inkscape:window-height="855"
     id="namedview870"
     showgrid="false"
     inkscape:zoom="3.3550233"
     inkscape:cx="29.381885"
     inkscape:cy="16.058815"
     inkscape:window-x="0"
     inkscape:window-y="23"
     inkscape:window-maximized="1"
     inkscape:current-layer="svg868" />
  <path
     d="M 26 0.5 C 26 0.5 10.370348 0.50097067 6.4648438 1.5429688 C 4.3172141 2.1156701 2.6236242 3.8092599 2.0429688 5.9648438 C 1.0009707 9.8623939 1 18 1 18 C 1 18 1.0009707 26.137606 2.0429688 30.035156 C 2.61567 32.182786 4.30926 33.876376 6.4648438 34.457031 C 10.370348 35.49903 26 35.5 26 35.5 C 26 35.5 41.637606 35.49903 45.535156 34.457031 C 47.682785 33.88433 49.376375 32.19074 49.957031 30.035156 C 50.999029 26.137606 51 18 51 18 C 51 18 50.999029 9.8623938 49.957031 5.9648438 C 49.38433 3.8172141 47.690739 2.1236242 45.535156 1.5429688 C 41.637606 0.50097067 26 0.5 26 0.5 z M 21.003906 10.5 L 33.994141 18 L 21.003906 25.5 L 21.003906 10.5 z "
     style="stroke-width:0.795418;fill:#ffffff;fill-opacity:1"
     id="path843" />
</svg>
